<svg aria-hidden="true" style="position: absolute; width: 0; height: 0; overflow: hidden;" version="1.1" xmlns="http://www.w3.org/2000/svg" xmlns:xlink="http://www.w3.org/1999/xlink">
<defs>
<symbol id="icon-eye" viewBox="0 0 32 32">
<path fill="#c1c1c1" style="fill: var(--color1, #c1c1c1)" d="M3.274 16c0.013-0.023 0.028-0.048 0.043-0.075 0.121-0.208 0.307-0.508 0.558-0.871 0.504-0.725 1.271-1.694 2.32-2.662 2.095-1.934 5.305-3.859 9.805-3.859s7.71 1.925 9.805 3.859c1.049 0.968 1.816 1.937 2.32 2.662 0.252 0.362 0.437 0.663 0.558 0.871 0.015 0.027 0.030 0.052 0.043 0.075-0.013 0.023-0.028 0.048-0.043 0.075-0.121 0.208-0.307 0.508-0.558 0.871-0.504 0.725-1.271 1.694-2.32 2.662-2.095 1.934-5.305 3.859-9.805 3.859s-7.71-1.925-9.805-3.859c-1.049-0.968-1.816-1.937-2.32-2.662-0.252-0.362-0.437-0.663-0.558-0.871-0.015-0.027-0.030-0.052-0.043-0.075zM29.333 16c0.477-0.239 0.477-0.239 0.477-0.239l-0-0.001-0.001-0.002-0.003-0.006-0.011-0.021c-0.009-0.018-0.022-0.042-0.039-0.074-0.034-0.064-0.085-0.155-0.152-0.27-0.134-0.23-0.334-0.554-0.603-0.942-0.538-0.775-1.354-1.806-2.472-2.838-2.238-2.066-5.695-4.141-10.528-4.141s-8.29 2.075-10.528 4.141c-1.118 1.032-1.934 2.063-2.472 2.838-0.269 0.388-0.469 0.712-0.603 0.942-0.067 0.115-0.117 0.206-0.152 0.27-0.017 0.032-0.030 0.057-0.039 0.074l-0.011 0.021-0.003 0.006-0.001 0.002-0 0.001c-0 0-0 0.001 0.477 0.239l-0.477-0.239-0.119 0.239 0.119 0.238 0.477-0.239c-0.477 0.239-0.477 0.239-0.477 0.239l0 0.001 0.001 0.002 0.003 0.006 0.011 0.021c0.009 0.017 0.022 0.042 0.039 0.074 0.034 0.064 0.085 0.155 0.152 0.27 0.134 0.23 0.334 0.554 0.603 0.942 0.538 0.775 1.354 1.806 2.472 2.838 2.238 2.066 5.695 4.141 10.528 4.141s8.29-2.075 10.528-4.141c1.118-1.032 1.934-2.063 2.472-2.838 0.269-0.388 0.469-0.712 0.603-0.942 0.067-0.115 0.117-0.206 0.152-0.27 0.017-0.032 0.030-0.057 0.039-0.074l0.011-0.021 0.004-0.008 0-0.001c0-0 0-0.001-0.477-0.239zM29.333 16l0.477-0.239 0.119 0.239-0.119 0.238-0.477-0.239z"></path>
<path fill="#c1c1c1" style="fill: var(--color1, #c1c1c1)" d="M16 12.533c-1.915 0-3.467 1.552-3.467 3.467s1.552 3.467 3.467 3.467c1.915 0 3.467-1.552 3.467-3.467s-1.552-3.467-3.467-3.467zM11.467 16c0-2.504 2.030-4.533 4.533-4.533s4.533 2.030 4.533 4.533c0 2.504-2.030 4.533-4.533 4.533s-4.533-2.030-4.533-4.533z"></path>
</symbol>
<symbol id="icon-eye-hidden" viewBox="0 0 32 32">
<path d="M8.109 20.891c-3.492-2.061-5.109-4.891-5.109-4.891s4-7 13-7c1.305 0 2.504 0.147 3.601 0.399l-0.85 0.85c-0.855-0.158-1.772-0.248-2.752-0.248-8 0-11.8 6-11.8 6s1.515 2.392 4.645 4.155l-0.736 0.736zM12.399 22.601c1.097 0.252 2.297 0.399 3.601 0.399 9 0 13-7 13-7s-1.617-2.83-5.109-4.891l-0.736 0.736c3.13 1.763 4.645 4.155 4.645 4.155s-3.8 6-11.8 6c-0.98 0-1.897-0.090-2.752-0.248l-0.85 0.85zM19.899 15.101c0.066 0.289 0.101 0.59 0.101 0.899 0 2.209-1.791 4-4 4-0.309 0-0.61-0.035-0.899-0.101l0.899-0.899c0.768 0 1.536-0.293 2.121-0.879s0.879-1.354 0.879-2.121l0.899-0.899zM16.899 12.101c-0.289-0.066-0.59-0.101-0.899-0.101-2.209 0-4 1.791-4 4 0 0.309 0.035 0.61 0.101 0.899l0.899-0.899c0-0.768 0.293-1.536 0.879-2.121s1.354-0.879 2.121-0.879l0.899-0.899zM24 7l-17 17 1 1 17-17-1-1z"></path>
</symbol>
<symbol id="icon-fema_320" viewBox="0 0 36 32">
<path fill="none"  stroke-linejoin="miter" stroke-linecap="butt" stroke-miterlimit="4" stroke-width="0.4" d="M6.4 0.2h23.2c3.424 0 6.2 2.776 6.2 6.2v19.2c0 3.424-2.776 6.2-6.2 6.2h-23.2c-3.424 0-6.2-2.776-6.2-6.2v-19.2c0-3.424 2.776-6.2 6.2-6.2z"></path>
<path  d="M9.802 22.33v-0.41h-3.072v4.48h0.474v-1.901h2.317v-0.41h-2.317v-1.76h2.598zM13.509 24.717c0-1.011-0.685-1.709-1.632-1.709s-1.645 0.71-1.645 1.709c0 0.998 0.717 1.715 1.766 1.715 0.531 0 0.998-0.192 1.299-0.55l-0.256-0.294c-0.256 0.294-0.621 0.442-1.030 0.442-0.736 0-1.274-0.467-1.325-1.171h2.816c0-0.051 0.006-0.102 0.006-0.141zM11.877 23.398c0.659 0 1.139 0.461 1.197 1.12h-2.387c0.058-0.659 0.538-1.12 1.19-1.12zM18.632 23.008c-0.608 0-1.088 0.275-1.331 0.71-0.205-0.474-0.64-0.71-1.197-0.71-0.563 0-0.998 0.237-1.235 0.64v-0.614h-0.435v3.366h0.454v-1.766c0-0.768 0.442-1.216 1.126-1.216 0.614 0 0.973 0.365 0.973 1.075v1.907h0.454v-1.766c0-0.768 0.435-1.216 1.126-1.216 0.608 0 0.966 0.365 0.966 1.075v1.907h0.454v-1.952c0-0.966-0.538-1.44-1.357-1.44zM22.399 23.008c-0.531 0-1.030 0.166-1.37 0.454l0.205 0.339c0.275-0.243 0.685-0.397 1.12-0.397 0.627 0 0.954 0.314 0.954 0.89v0.205h-1.069c-0.966 0-1.299 0.435-1.299 0.954 0 0.582 0.467 0.979 1.229 0.979 0.557 0 0.954-0.211 1.158-0.557v0.525h0.435v-2.086c0-0.87-0.493-1.306-1.363-1.306zM22.239 26.074c-0.538 0-0.851-0.243-0.851-0.634 0-0.346 0.211-0.602 0.864-0.602h1.056v0.55c-0.179 0.442-0.557 0.685-1.069 0.685zM24.996 26.4h0.454v-4.749h-0.454v4.749zM29.652 24.717c0-1.011-0.685-1.709-1.632-1.709s-1.645 0.71-1.645 1.709c0 0.998 0.717 1.715 1.766 1.715 0.531 0 0.998-0.192 1.299-0.55l-0.256-0.294c-0.256 0.294-0.621 0.442-1.030 0.442-0.736 0-1.274-0.467-1.325-1.171h2.816c0-0.051 0.006-0.102 0.006-0.141zM28.020 23.398c0.659 0 1.139 0.461 1.197 1.12h-2.387c0.058-0.659 0.538-1.12 1.19-1.12z"></path>
<path  d="M21.875 7.875c0-2.137-1.738-3.875-3.875-3.875s-3.875 1.738-3.875 3.875c0 2.010 1.539 3.668 3.5 3.857v2.568h-1.375c-0.207 0-0.375 0.168-0.375 0.375s0.168 0.375 0.375 0.375h1.375v1.375c0 0.207 0.168 0.375 0.375 0.375s0.375-0.168 0.375-0.375v-1.375h1.375c0.207 0 0.375-0.168 0.375-0.375s-0.168-0.375-0.375-0.375h-1.375v-2.568c1.961-0.189 3.5-1.847 3.5-3.857zM14.875 7.875c0-1.723 1.402-3.125 3.125-3.125s3.125 1.402 3.125 3.125c0 1.723-1.402 3.125-3.125 3.125s-3.125-1.402-3.125-3.125z"></path>
</symbol>
<symbol id="icon-male_320" viewBox="0 0 36 32">
<path fill="none"  stroke-linejoin="miter" stroke-linecap="butt" stroke-miterlimit="4" stroke-width="0.4" d="M6.4 0.2h23.2c3.424 0 6.2 2.776 6.2 6.2v19.2c0 3.424-2.776 6.2-6.2 6.2h-23.2c-3.424 0-6.2-2.776-6.2-6.2v-19.2c0-3.424 2.776-6.2 6.2-6.2z"></path>
<path  d="M15.382 21.92v4.48h-0.454v-3.584l-1.76 3.014h-0.224l-1.76-2.995v3.565h-0.454v-4.48h0.39l1.946 3.322 1.926-3.322h0.39zM17.924 23.008c0.439 0 0.777 0.111 1.011 0.333 0.235 0.218 0.352 0.542 0.352 0.973v2.086h-0.435v-0.525c-0.102 0.175-0.254 0.311-0.454 0.41-0.196 0.098-0.431 0.147-0.704 0.147-0.375 0-0.674-0.090-0.896-0.269s-0.333-0.416-0.333-0.71c0-0.286 0.102-0.516 0.307-0.691 0.209-0.175 0.54-0.262 0.992-0.262h1.069v-0.205c0-0.29-0.081-0.51-0.243-0.659-0.162-0.154-0.399-0.23-0.71-0.23-0.213 0-0.418 0.036-0.614 0.109-0.196 0.068-0.365 0.164-0.506 0.288l-0.205-0.339c0.171-0.145 0.375-0.256 0.614-0.333 0.239-0.081 0.491-0.122 0.755-0.122zM17.764 26.074c0.256 0 0.476-0.058 0.659-0.173 0.183-0.119 0.32-0.29 0.41-0.512v-0.55h-1.056c-0.576 0-0.864 0.201-0.864 0.602 0 0.196 0.075 0.352 0.224 0.467 0.149 0.111 0.358 0.166 0.627 0.166zM20.521 21.651h0.454v4.749h-0.454v-4.749zM25.171 24.858h-2.816c0.026 0.35 0.16 0.634 0.403 0.851 0.243 0.213 0.55 0.32 0.922 0.32 0.209 0 0.401-0.036 0.576-0.109 0.175-0.077 0.326-0.188 0.454-0.333l0.256 0.294c-0.149 0.179-0.337 0.316-0.563 0.41-0.222 0.094-0.467 0.141-0.736 0.141-0.346 0-0.653-0.073-0.922-0.218-0.265-0.149-0.471-0.354-0.621-0.614s-0.224-0.555-0.224-0.883 0.070-0.623 0.211-0.883c0.145-0.26 0.341-0.463 0.589-0.608 0.252-0.145 0.533-0.218 0.845-0.218s0.591 0.073 0.838 0.218c0.247 0.145 0.442 0.348 0.582 0.608 0.141 0.256 0.211 0.55 0.211 0.883l-0.006 0.141zM23.545 23.398c-0.324 0-0.597 0.105-0.819 0.314-0.218 0.205-0.341 0.474-0.371 0.806h2.387c-0.030-0.333-0.156-0.602-0.378-0.806-0.218-0.209-0.491-0.314-0.819-0.314z"></path>
<path   d="M24.025 4h-3.5c-0.207 0-0.375 0.168-0.375 0.375s0.168 0.375 0.375 0.375h2.595l-4.328 4.328c-0.788-0.665-1.774-1.028-2.817-1.028-1.169 0-2.267 0.455-3.094 1.281s-1.281 1.925-1.281 3.094c0 1.169 0.455 2.267 1.281 3.094s1.925 1.281 3.094 1.281c1.169 0 2.267-0.455 3.094-1.281s1.281-1.925 1.281-3.094c0-1.043-0.363-2.029-1.028-2.817l4.328-4.328v2.595c0 0.207 0.168 0.375 0.375 0.375s0.375-0.168 0.375-0.375v-3.5c0-0.207-0.168-0.375-0.375-0.375zM18.538 14.988c-0.685 0.685-1.595 1.062-2.563 1.062s-1.879-0.377-2.563-1.062c-0.685-0.685-1.062-1.595-1.062-2.563s0.377-1.879 1.062-2.563c0.685-0.685 1.595-1.062 2.563-1.062s1.879 0.377 2.563 1.062c0.685 0.685 1.062 1.595 1.062 2.563s-0.377 1.879-1.062 2.563z"></path>
</symbol>
<symbol id="icon-other_320" viewBox="0 0 36 32">
<path fill="none" stroke-linejoin="miter" stroke-linecap="butt" stroke-miterlimit="4" stroke-width="0.4" d="M6.4 0.2h23.2c3.424 0 6.2 2.776 6.2 6.2v19.2c0 3.424-2.776 6.2-6.2 6.2h-23.2c-3.424 0-6.2-2.776-6.2-6.2v-19.2c0-3.424 2.776-6.2 6.2-6.2z"></path>
<path  d="M11.488 26.438c1.344 0 2.349-0.966 2.349-2.278s-1.005-2.278-2.349-2.278c-1.357 0-2.355 0.973-2.355 2.278s0.998 2.278 2.355 2.278zM11.488 26.016c-1.082 0-1.888-0.787-1.888-1.856s0.806-1.856 1.888-1.856c1.075 0 1.875 0.787 1.875 1.856s-0.8 1.856-1.875 1.856zM16.446 25.869c-0.128 0.115-0.314 0.173-0.499 0.173-0.378 0-0.582-0.218-0.582-0.614v-2.010h1.024v-0.384h-1.024v-0.736h-0.454v0.736h-0.602v0.384h0.602v2.035c0 0.621 0.352 0.979 0.986 0.979 0.262 0 0.531-0.077 0.71-0.237l-0.16-0.326zM19.149 23.008c-0.57 0-1.011 0.224-1.261 0.614v-1.971h-0.454v4.749h0.454v-1.766c0-0.768 0.454-1.216 1.178-1.216 0.64 0 1.011 0.365 1.011 1.075v1.907h0.454v-1.952c0-0.966-0.563-1.44-1.382-1.44zM24.715 24.717c0-1.011-0.685-1.709-1.632-1.709s-1.645 0.71-1.645 1.709c0 0.998 0.717 1.715 1.766 1.715 0.531 0 0.998-0.192 1.299-0.55l-0.256-0.294c-0.256 0.294-0.621 0.442-1.030 0.442-0.736 0-1.274-0.467-1.325-1.171h2.816c0-0.051 0.006-0.102 0.006-0.141zM23.083 23.398c0.659 0 1.139 0.461 1.197 1.12h-2.387c0.058-0.659 0.538-1.12 1.19-1.12zM26.075 23.693v-0.659h-0.435v3.366h0.454v-1.715c0-0.794 0.429-1.242 1.133-1.242 0.032 0 0.070 0.006 0.109 0.006v-0.442c-0.621 0-1.050 0.237-1.261 0.685z"></path>
<path  d="M23.65 4h-2.25c-0.207 0-0.375 0.168-0.375 0.375s0.168 0.375 0.375 0.375h1.345l-2.024 2.024c-0.647-0.486-1.451-0.774-2.321-0.774s-1.674 0.288-2.321 0.774l-0.83-0.83 0.748-0.2c0.2-0.054 0.319-0.259 0.265-0.459s-0.259-0.319-0.459-0.265l-0.748 0.2 0.2-0.748c0.054-0.2-0.065-0.406-0.265-0.459s-0.406 0.065-0.459 0.265l-0.2 0.748-0.504-0.504c-0.146-0.146-0.384-0.146-0.53 0s-0.146 0.384 0 0.53l0.504 0.504-0.748 0.2c-0.2 0.054-0.319 0.259-0.265 0.459 0.045 0.168 0.196 0.278 0.362 0.278 0.032 0 0.065-0.004 0.097-0.013l0.748-0.2-0.2 0.748c-0.054 0.2 0.065 0.406 0.265 0.459 0.033 0.009 0.065 0.013 0.097 0.013 0.166 0 0.317-0.111 0.362-0.278l0.2-0.748 0.806 0.806c-0.621 0.687-1 1.598-1 2.595 0 2.010 1.539 3.668 3.5 3.857v1.068h-1.125c-0.207 0-0.375 0.168-0.375 0.375s0.168 0.375 0.375 0.375h1.125v0.875c0 0.207 0.168 0.375 0.375 0.375s0.375-0.168 0.375-0.375v-0.875h1.125c0.207 0 0.375-0.168 0.375-0.375s-0.168-0.375-0.375-0.375h-1.125v-1.068c1.961-0.189 3.5-1.847 3.5-3.857 0-0.997-0.379-1.908-1-2.595l2-2v1.345c0 0.207 0.168 0.375 0.375 0.375s0.375-0.168 0.375-0.375v-2.25c0-0.207-0.168-0.375-0.375-0.375zM21.525 9.875c0 1.723-1.402 3.125-3.125 3.125s-3.125-1.402-3.125-3.125c0-1.723 1.402-3.125 3.125-3.125s3.125 1.402 3.125 3.125z"></path>
</symbol>


<svg width="0" height="0" class="hidden">
  <symbol fill="none" xmlns="http://www.w3.org/2000/svg" viewBox="0 0 156 100" id="other">
    <rect x="0.5" y="0.5" width="155" height="99" rx="15.5" ></rect>
    <path d="M58.56 77.108C62.34 77.108 65.166 74.39 65.166 70.7C65.166 67.01 62.34 64.292 58.56 64.292C54.744 64.292 51.936 67.028 51.936 70.7C51.936 74.372 54.744 77.108 58.56 77.108ZM58.56 75.92C55.518 75.92 53.25 73.706 53.25 70.7C53.25 67.694 55.518 65.48 58.56 65.48C61.584 65.48 63.834 67.694 63.834 70.7C63.834 73.706 61.584 75.92 58.56 75.92ZM72.5055 75.506C72.1455 75.83 71.6235 75.992 71.1015 75.992C70.0395 75.992 69.4635 75.38 69.4635 74.264V68.612H72.3435V67.532H69.4635V65.462H68.1855V67.532H66.4935V68.612H68.1855V74.336C68.1855 76.082 69.1755 77.09 70.9575 77.09C71.6955 77.09 72.4515 76.874 72.9555 76.424L72.5055 75.506ZM80.106 67.46C78.504 67.46 77.262 68.09 76.56 69.188V63.644H75.282V77H76.56V72.032C76.56 69.872 77.838 68.612 79.872 68.612C81.672 68.612 82.716 69.638 82.716 71.636V77H83.994V71.51C83.994 68.792 82.41 67.46 80.106 67.46ZM95.7608 72.266C95.7608 69.422 93.8348 67.46 91.1708 67.46C88.5068 67.46 86.5448 69.458 86.5448 72.266C86.5448 75.074 88.5608 77.09 91.5128 77.09C93.0068 77.09 94.3208 76.55 95.1668 75.542L94.4468 74.714C93.7268 75.542 92.7008 75.956 91.5488 75.956C89.4788 75.956 87.9668 74.642 87.8228 72.662H95.7428C95.7428 72.518 95.7608 72.374 95.7608 72.266ZM91.1708 68.558C93.0248 68.558 94.3748 69.854 94.5368 71.708H87.8228C87.9848 69.854 89.3348 68.558 91.1708 68.558ZM99.5861 69.386V67.532H98.3621V77H99.6401V72.176C99.6401 69.944 100.846 68.684 102.826 68.684C102.916 68.684 103.024 68.702 103.132 68.702V67.46C101.386 67.46 100.18 68.126 99.5861 69.386Z" fill="#5B5B5B"></path>
    <g clip-path="url(#clip0_2:119)">
      <path d="M91.1252 20H85.5002C84.9824 20 84.5627 20.4198 84.5627 20.9375C84.5627 21.4553 84.9824 21.875 85.5002 21.875H88.8619L83.8024 26.9345C82.1839 25.7203 80.1746 25 78.0002 25C75.8257 25 73.8164 25.7203 72.198 26.9345L70.1241 24.8605L71.9931 24.3597C72.4932 24.2257 72.79 23.7116 72.656 23.2115C72.522 22.7114 72.008 22.4145 71.5078 22.5486L69.6387 23.0494L70.1396 21.1804C70.2736 20.6803 69.9768 20.1662 69.4767 20.0322C68.9763 19.8981 68.4624 20.1949 68.3285 20.6951L67.8277 22.5641L66.5677 21.3043C66.2016 20.9381 65.608 20.9381 65.2419 21.3043C64.8758 21.6704 64.8758 22.2639 65.2419 22.6301L66.5019 23.89L64.6328 24.3908C64.1327 24.5248 63.8359 25.0389 63.9699 25.539C64.0821 25.9579 64.4609 26.2341 64.8749 26.2341C64.9552 26.2341 65.0368 26.2237 65.1181 26.2019L66.9872 25.7011L66.4864 27.5702C66.3524 28.0703 66.6491 28.5844 67.1492 28.7184C67.2306 28.7402 67.3121 28.7506 67.3925 28.7506C67.8064 28.7506 68.1852 28.4743 68.2974 28.0554L68.7982 26.1864L70.8121 28.2002C69.2594 29.9188 68.3127 32.1946 68.3127 34.6875C68.3127 39.713 72.1592 43.8564 77.0627 44.3295V47H74.2502C73.7324 47 73.3127 47.4198 73.3127 47.9375C73.3127 48.4553 73.7324 48.875 74.2502 48.875H77.0627V51.0625C77.0627 51.5803 77.4824 52 78.0002 52C78.5179 52 78.9377 51.5803 78.9377 51.0625V48.875H81.7502C82.2679 48.875 82.6877 48.4553 82.6877 47.9375C82.6877 47.4198 82.2679 47 81.7502 47H78.9377V44.3295C83.8411 43.8565 87.6877 39.713 87.6877 34.6875C87.6877 32.1946 86.7409 29.9187 85.1884 28.2001L90.1877 23.2008V26.5625C90.1877 27.0803 90.6074 27.5 91.1252 27.5C91.6429 27.5 92.0627 27.0803 92.0627 26.5625V20.9375C92.0627 20.4198 91.6429 20 91.1252 20ZM85.8127 34.6875C85.8127 38.9953 82.308 42.5 78.0002 42.5C73.6924 42.5 70.1877 38.9953 70.1877 34.6875C70.1877 30.3797 73.6924 26.875 78.0002 26.875C82.308 26.875 85.8127 30.3797 85.8127 34.6875Z" fill="#5B5B5B"></path>
    </g>
    <defs>
      <clipPath id="clip0_2:119">
        <rect width="32" height="32" fill="white" transform="translate(62 20)"></rect>
      </clipPath>
    </defs>
  </symbol>
  <symbol fill="none" xmlns="http://www.w3.org/2000/svg" viewBox="0 0 156 100" id="fema">
    <rect x="0.5" y="0.5" width="155" height="99" rx="15.5"></rect>
    <path d="M54.692 65.552V64.4H46.052V77H47.384V71.654H53.9V70.502H47.384V65.552H54.692ZM65.1182 72.266C65.1182 69.422 63.1922 67.46 60.5282 67.46C57.8642 67.46 55.9022 69.458 55.9022 72.266C55.9022 75.074 57.9182 77.09 60.8702 77.09C62.3642 77.09 63.6782 76.55 64.5242 75.542L63.8042 74.714C63.0842 75.542 62.0582 75.956 60.9062 75.956C58.8362 75.956 57.3242 74.642 57.1802 72.662H65.1002C65.1002 72.518 65.1182 72.374 65.1182 72.266ZM60.5282 68.558C62.3822 68.558 63.7322 69.854 63.8942 71.708H57.1802C57.3422 69.854 58.6922 68.558 60.5282 68.558ZM79.5275 67.46C77.8175 67.46 76.4675 68.234 75.7835 69.458C75.2075 68.126 73.9835 67.46 72.4175 67.46C70.8335 67.46 69.6095 68.126 68.9435 69.26V67.532H67.7195V77H68.9975V72.032C68.9975 69.872 70.2395 68.612 72.1655 68.612C73.8935 68.612 74.9015 69.638 74.9015 71.636V77H76.1795V72.032C76.1795 69.872 77.4035 68.612 79.3475 68.612C81.0575 68.612 82.0655 69.638 82.0655 71.636V77H83.3435V71.51C83.3435 68.792 81.8315 67.46 79.5275 67.46ZM90.1213 67.46C88.6273 67.46 87.2233 67.928 86.2693 68.738L86.8453 69.692C87.6193 69.008 88.7713 68.576 89.9953 68.576C91.7593 68.576 92.6773 69.458 92.6773 71.078V71.654H89.6713C86.9533 71.654 86.0173 72.878 86.0173 74.336C86.0173 75.974 87.3313 77.09 89.4733 77.09C91.0393 77.09 92.1553 76.496 92.7313 75.524V77H93.9553V71.132C93.9553 68.684 92.5693 67.46 90.1213 67.46ZM89.6713 76.082C88.1593 76.082 87.2773 75.398 87.2773 74.3C87.2773 73.328 87.8713 72.608 89.7073 72.608H92.6773V74.156C92.1733 75.398 91.1113 76.082 89.6713 76.082ZM97.4265 77H98.7045V63.644H97.4265V77ZM110.523 72.266C110.523 69.422 108.597 67.46 105.933 67.46C103.269 67.46 101.307 69.458 101.307 72.266C101.307 75.074 103.323 77.09 106.275 77.09C107.769 77.09 109.083 76.55 109.929 75.542L109.209 74.714C108.489 75.542 107.463 75.956 106.311 75.956C104.241 75.956 102.729 74.642 102.585 72.662H110.505C110.505 72.518 110.523 72.374 110.523 72.266ZM105.933 68.558C107.787 68.558 109.137 69.854 109.299 71.708H102.585C102.747 69.854 104.097 68.558 105.933 68.558Z" fill="#5B5B5B"></path>
    <path d="M87.6875 29.6875C87.6875 24.3458 83.3417 20 78 20C72.6583 20 68.3125 24.3458 68.3125 29.6875C68.3125 34.7129 72.1591 38.8564 77.0625 39.3295V45.75H73.625C73.1073 45.75 72.6875 46.1698 72.6875 46.6875C72.6875 47.2052 73.1073 47.625 73.625 47.625H77.0625V51.0625C77.0625 51.5802 77.4823 52 78 52C78.5177 52 78.9375 51.5802 78.9375 51.0625V47.625H82.375C82.8927 47.625 83.3125 47.2052 83.3125 46.6875C83.3125 46.1698 82.8927 45.75 82.375 45.75H78.9375V39.3295C83.8409 38.8564 87.6875 34.7129 87.6875 29.6875ZM70.1875 29.6875C70.1875 25.3797 73.6922 21.875 78 21.875C82.3078 21.875 85.8125 25.3797 85.8125 29.6875C85.8125 33.9953 82.3078 37.5 78 37.5C73.6922 37.5 70.1875 33.9953 70.1875 29.6875Z" fill="#5B5B5B"></path>
  </symbol>
  <symbol fill="none" xmlns="http://www.w3.org/2000/svg" viewBox="0 0 156 100" id="male">
    <rect x="0.5" y="0.5" width="155" height="99" rx="15.5"></rect>
    <path d="M70.138 64.4V77H68.86V66.92L63.91 75.398H63.28L58.33 66.974V77H57.052V64.4H58.15L63.622 73.742L69.04 64.4H70.138ZM77.2854 67.46C78.5214 67.46 79.4694 67.772 80.1294 68.396C80.7894 69.008 81.1194 69.92 81.1194 71.132V77H79.8954V75.524C79.6074 76.016 79.1814 76.4 78.6174 76.676C78.0654 76.952 77.4054 77.09 76.6374 77.09C75.5814 77.09 74.7414 76.838 74.1174 76.334C73.4934 75.83 73.1814 75.164 73.1814 74.336C73.1814 73.532 73.4694 72.884 74.0454 72.392C74.6334 71.9 75.5634 71.654 76.8354 71.654H79.8414V71.078C79.8414 70.262 79.6134 69.644 79.1574 69.224C78.7014 68.792 78.0354 68.576 77.1594 68.576C76.5594 68.576 75.9834 68.678 75.4314 68.882C74.8794 69.074 74.4054 69.344 74.0094 69.692L73.4334 68.738C73.9134 68.33 74.4894 68.018 75.1614 67.802C75.8334 67.574 76.5414 67.46 77.2854 67.46ZM76.8354 76.082C77.5554 76.082 78.1734 75.92 78.6894 75.596C79.2054 75.26 79.5894 74.78 79.8414 74.156V72.608H76.8714C75.2514 72.608 74.4414 73.172 74.4414 74.3C74.4414 74.852 74.6514 75.29 75.0714 75.614C75.4914 75.926 76.0794 76.082 76.8354 76.082ZM84.5906 63.644H85.8686V77H84.5906V63.644ZM97.6686 72.662H89.7486C89.8206 73.646 90.1986 74.444 90.8826 75.056C91.5666 75.656 92.4306 75.956 93.4746 75.956C94.0626 75.956 94.6026 75.854 95.0946 75.65C95.5866 75.434 96.0126 75.122 96.3726 74.714L97.0926 75.542C96.6726 76.046 96.1446 76.43 95.5086 76.694C94.8846 76.958 94.1946 77.09 93.4386 77.09C92.4666 77.09 91.6026 76.886 90.8466 76.478C90.1026 76.058 89.5206 75.482 89.1006 74.75C88.6806 74.018 88.4706 73.19 88.4706 72.266C88.4706 71.342 88.6686 70.514 89.0646 69.782C89.4726 69.05 90.0246 68.48 90.7206 68.072C91.4286 67.664 92.2206 67.46 93.0966 67.46C93.9726 67.46 94.7586 67.664 95.4546 68.072C96.1506 68.48 96.6966 69.05 97.0926 69.782C97.4886 70.502 97.6866 71.33 97.6866 72.266L97.6686 72.662ZM93.0966 68.558C92.1846 68.558 91.4166 68.852 90.7926 69.44C90.1806 70.016 89.8326 70.772 89.7486 71.708H96.4626C96.3786 70.772 96.0246 70.016 95.4006 69.44C94.7886 68.852 94.0206 68.558 93.0966 68.558Z" fill="#5B5B5B"></path>
    <path d="M93.0625 20H84.3125C83.7948 20 83.375 20.4197 83.375 20.9375C83.375 21.4553 83.7948 21.875 84.3125 21.875H90.7992L79.9802 32.694C78.0113 31.0314 75.5443 30.125 72.9375 30.125C70.016 30.125 67.2694 31.2627 65.2035 33.3285C63.1376 35.3943 62 38.141 62 41.0625C62 43.984 63.1377 46.7306 65.2035 48.7965C67.2693 50.8624 70.016 52 72.9375 52C75.859 52 78.6056 50.8623 80.6715 48.7965C82.7374 46.7307 83.875 43.984 83.875 41.0625C83.875 38.4557 82.9686 35.9888 81.306 34.0198L92.125 23.2008V29.6875C92.125 30.2052 92.5448 30.625 93.0625 30.625C93.5802 30.625 94 30.2052 94 29.6875V20.9375C94 20.4197 93.5802 20 93.0625 20ZM79.3457 47.4707C77.634 49.1823 75.3582 50.125 72.9375 50.125C70.5168 50.125 68.241 49.1823 66.5293 47.4707C64.8177 45.759 63.875 43.4832 63.875 41.0625C63.875 38.6418 64.8177 36.366 66.5293 34.6543C68.241 32.9427 70.5168 32 72.9375 32C75.3582 32 77.634 32.9427 79.3457 34.6543C81.0573 36.366 82 38.6418 82 41.0625C82 43.4832 81.0573 45.759 79.3457 47.4707Z" fill="#5B5B5B"></path>
  </symbol>
</svg>


